<?xml version="1.0" encoding="UTF-8"?>
<svg width="30px" height="28px" viewBox="0 0 30 28" version="1.1" xmlns="http://www.w3.org/2000/svg" xmlns:xlink="http://www.w3.org/1999/xlink">
    <title>CART</title>
    <g id="Desktop---1440px" stroke="none" stroke-width="1" fill="none" fill-rule="evenodd">
        <g id="MENU" transform="translate(-1362.000000, -44.000000)" fill="#F04DA3">
            <g id="CART" transform="translate(1362.000000, 44.000000)">
                <path d="M10.5,23 C11.8807031,23 13,24.1192969 13,25.5 C13,26.8807031 11.8807031,28 10.5,28 C9.11929687,28 8,26.8807031 8,25.5 C8,24.1192969 9.11929687,23 10.5,23" id="Wheel-1"></path>
                <path d="M25.5,23 C26.8807031,23 28,24.1192969 28,25.5 C28,26.8807031 26.8807031,28 25.5,28 C24.1192969,28 23,26.8807031 23,25.5 C23,24.1192969 24.1192969,23 25.5,23" id="Wheel-2"></path>
                <path d="M29.6191463,4.10907897 C29.3017584,3.7061316 28.8265134,3.47281582 28.3250517,3.47368424 L7.10427216,3.47368424 L6.67685839,0.956710562 C6.58279947,0.403309248 6.11940765,0 5.57799364,0 L1.11559873,0 C0.499439606,0 0,0.518375037 0,1.15789477 C0,1.79741451 0.499439606,2.3157895 1.11559873,2.3157895 L4.64228521,2.3157895 L7.82592508,21.0432894 C7.919984,21.5966908 8.38337582,22 8.92478983,22 L26.7743695,22 C27.3905286,22 27.8899682,21.481625 27.8899682,20.8421052 C27.8899682,20.2025855 27.3905286,19.6842105 26.7743695,19.6842105 L9.86049827,19.6842105 L9.46724971,17.368421 L26.316974,17.368421 C27.1145574,17.3673355 27.8012781,16.7838289 27.9596931,15.9724342 L29.9677709,5.5513816 C30.0657344,5.04067765 29.9377891,4.51130265 29.6191463,4.10907897" id="Basket"></path>
            </g>
        </g>
    </g>
</svg>