<?xml version="1.0" encoding="UTF-8"?><svg xmlns="http://www.w3.org/2000/svg" viewBox="0 0 24 24"><defs><style>.e{fill:#fff;}.f{fill:#1877f2;}</style></defs><g id="a"/><g id="b"><g id="c"><g id="d"><path class="f" d="M24,12C24,5.37,18.63,0,12,0S0,5.37,0,12c0,5.99,4.39,10.95,10.12,11.85V15.47h-3.05v-3.47h3.05v-2.64c0-3.01,1.79-4.67,4.53-4.67,1.31,0,2.69,.23,2.69,.23v2.95h-1.51c-1.49,0-1.96,.93-1.96,1.87v2.25h3.33l-.53,3.47h-2.8v8.39c5.74-.9,10.12-5.86,10.12-11.85Z"/><path class="e" d="M16.67,15.47l.53-3.47h-3.33v-2.25c0-.95,.46-1.87,1.96-1.87h1.51v-2.95s-1.37-.23-2.69-.23c-2.74,0-4.53,1.66-4.53,4.67v2.64h-3.05v3.47h3.05v8.39c.61,.1,1.24,.15,1.88,.15s1.26-.05,1.88-.15V15.47h2.8Z"/></g></g></g></svg>