<?xml version="1.0" encoding="UTF-8"?><svg xmlns="http://www.w3.org/2000/svg" viewBox="0 0 24 24"><g id="a"/><g id="b"><g id="c"><path id="d" d="M12,2.16c3.2,0,3.58,.01,4.85,.07,1.17,.05,1.81,.25,2.23,.41,.56,.22,.96,.48,1.38,.9,.42,.42,.68,.82,.9,1.38,.16,.42,.36,1.06,.41,2.23,.06,1.27,.07,1.64,.07,4.85s-.01,3.58-.07,4.85c-.05,1.17-.25,1.81-.41,2.23-.22,.56-.48,.96-.9,1.38s-.82,.68-1.38,.9c-.42,.16-1.06,.36-2.23,.41-1.27,.06-1.64,.07-4.85,.07s-3.58-.01-4.85-.07c-1.17-.05-1.81-.25-2.23-.41-.56-.22-.96-.48-1.38-.9-.42-.42-.68-.82-.9-1.38-.16-.42-.36-1.06-.41-2.23-.06-1.27-.07-1.64-.07-4.85s.01-3.58,.07-4.85c.05-1.17,.25-1.81,.41-2.23,.22-.56,.48-.96,.9-1.38s.82-.68,1.38-.9c.42-.16,1.06-.36,2.23-.41,1.27-.06,1.64-.07,4.85-.07m0-2.16c-3.26,0-3.67,.01-4.95,.07-1.28,.06-2.15,.26-2.91,.56-.79,.31-1.46,.72-2.13,1.38-.67,.67-1.08,1.34-1.38,2.13-.3,.76-.5,1.64-.56,2.91-.06,1.28-.07,1.69-.07,4.95s.01,3.67,.07,4.95c.06,1.28,.26,2.15,.56,2.91,.31,.79,.72,1.46,1.38,2.13,.67,.67,1.34,1.08,2.13,1.38,.76,.3,1.64,.5,2.91,.56,1.28,.06,1.69,.07,4.95,.07s3.67-.01,4.95-.07c1.28-.06,2.15-.26,2.91-.56,.79-.31,1.46-.72,2.13-1.38,.67-.67,1.08-1.34,1.38-2.13,.3-.76,.5-1.64,.56-2.91,.06-1.28,.07-1.69,.07-4.95s-.01-3.67-.07-4.95c-.06-1.28-.26-2.15-.56-2.91-.31-.79-.72-1.46-1.38-2.13-.67-.67-1.34-1.08-2.13-1.38-.76-.3-1.64-.5-2.91-.56-1.28-.06-1.69-.07-4.95-.07h0Zm0,5.84c-3.4,0-6.16,2.76-6.16,6.16s2.76,6.16,6.16,6.16,6.16-2.76,6.16-6.16-2.76-6.16-6.16-6.16Zm0,10.16c-2.21,0-4-1.79-4-4s1.79-4,4-4,4,1.79,4,4-1.79,4-4,4Zm6.41-11.85c-.8,0-1.44,.64-1.44,1.44s.64,1.44,1.44,1.44,1.44-.64,1.44-1.44-.64-1.44-1.44-1.44Z"/></g></g></svg>