<?xml version="1.0" encoding="UTF-8"?>
<svg width="28px" height="36px" viewBox="0 0 28 36" version="1.1" xmlns="http://www.w3.org/2000/svg" xmlns:xlink="http://www.w3.org/1999/xlink">
    <title>MENU - Spoons</title>
    <g id="Symbols" stroke="none" stroke-width="1" fill="none" fill-rule="evenodd">
        <g id="HEADER---01" transform="translate(-48.000000, -40.000000)" fill="#F04DA3">
            <g id="MENU---Spoons" transform="translate(48.000000, 40.000000)">
                <path d="M13.5943001,17.0217291 C11.1706912,17.2807215 9.20702277,19.9429818 9.01602332,23.2290365 C8.81531688,26.6801882 10.5228919,29.6391693 12.8597088,30.3787018 L11.5238546,42.539714 C11.5238546,43.8985022 12.6324508,45 14,45 C15.3675401,45 16.4761363,43.8985022 16.4761363,42.539714 L15.1399967,30.3752978 C17.2150101,29.7143423 18.8126677,27.2753318 18.9839676,24.3293996 C19.2269281,20.1520479 16.6751298,16.6923861 13.5943001,17.0217291" id="Spoon-3" transform="translate(14.000000, 31.000000) rotate(-270.000000) translate(-14.000000, -31.000000) "></path>
                <path d="M13.5943001,4.02172907 C11.1706912,4.28072147 9.20702277,6.94298179 9.01602332,10.2290365 C8.81531688,13.6801882 10.5228919,16.6391693 12.8597088,17.3787018 L11.5238546,29.539714 C11.5238546,30.8985022 12.6324508,32 14,32 C15.3675401,32 16.4761363,30.8985022 16.4761363,29.539714 L15.1399967,17.3752978 C17.2150101,16.7143423 18.8126677,14.2753318 18.9839676,11.3293996 C19.2269281,7.15204794 16.6751298,3.69238605 13.5943001,4.02172907" id="Spoon-2" transform="translate(14.000000, 18.000000) scale(-1, 1) rotate(-270.000000) translate(-14.000000, -18.000000) "></path>
                <path d="M13.5943001,-8.97827093 C11.1706912,-8.71927853 9.20702277,-6.05701821 9.01602332,-2.7709635 C8.81531688,0.680188233 10.5228919,3.6391693 12.8597088,4.37870182 L11.5238546,16.539714 C11.5238546,17.8985022 12.6324508,19 14,19 C15.3675401,19 16.4761363,17.8985022 16.4761363,16.539714 L15.1399967,4.37529776 C17.2150101,3.71434234 18.8126677,1.27533177 18.9839676,-1.67060039 C19.2269281,-5.84795206 16.6751298,-9.30761395 13.5943001,-8.97827093" id="Spoon-1" transform="translate(14.000000, 5.000000) rotate(-270.000000) translate(-14.000000, -5.000000) "></path>
            </g>
        </g>
    </g>
</svg>