<?xml version="1.0" encoding="UTF-8"?><svg xmlns="http://www.w3.org/2000/svg" viewBox="0 0 29.53 24"><defs><style>.e{fill:#009ef7;}</style></defs><g id="a"/><g id="b"><g id="c"><path id="d" class="e" d="M29.53,2.84c-1.09,.48-2.25,.81-3.48,.95,1.25-.75,2.21-1.94,2.66-3.35-1.17,.69-2.47,1.2-3.85,1.47-1.1-1.18-2.68-1.91-4.42-1.91-3.35,0-6.06,2.71-6.06,6.06,0,.47,.05,.94,.16,1.38-5.04-.25-9.5-2.66-12.49-6.33-.52,.9-.82,1.94-.82,3.05,0,2.1,1.07,3.96,2.7,5.04-.99-.03-1.93-.3-2.74-.76,0,.02,0,.05,0,.07,0,2.94,2.09,5.39,4.86,5.94-.51,.14-1.04,.21-1.6,.21-.39,0-.77-.04-1.14-.11,.77,2.41,3.01,4.16,5.66,4.21-2.07,1.63-4.69,2.59-7.52,2.59-.49,0-.97-.03-1.44-.08,2.68,1.72,5.87,2.72,9.29,2.72,11.15,0,17.24-9.23,17.24-17.24,0-.26,0-.52-.02-.78,1.18-.85,2.21-1.92,3.02-3.14"/></g></g></svg>