<?xml version="1.0" encoding="UTF-8"?><svg xmlns="http://www.w3.org/2000/svg" viewBox="0 0 34.06 24"><defs><style>.e{fill:#fff;}.f{fill:red;}</style></defs><g id="a"/><g id="b"><g id="c"><g id="d"><path class="f" d="M33.35,3.75c-.39-1.48-1.55-2.64-3.01-3.03-2.66-.72-13.31-.72-13.31-.72,0,0-10.65,0-13.31,.72-1.47,.39-2.62,1.56-3.01,3.03-.71,2.67-.71,8.25-.71,8.25,0,0,0,5.58,.71,8.25,.39,1.48,1.55,2.64,3.01,3.03,2.66,.72,13.31,.72,13.31,.72,0,0,10.65,0,13.31-.72,1.47-.39,2.62-1.56,3.01-3.03,.71-2.67,.71-8.25,.71-8.25,0,0,0-5.58-.71-8.25Z"/><polygon class="e" points="13.55 17.06 22.45 12 13.55 6.94 13.55 17.06"/></g></g></g></svg>